<?xml version="1.0" encoding="iso-8859-1"?>
<!-- Generator: Adobe Illustrator 17.1.0, SVG Export Plug-In . SVG Version: 6.00 Build 0)  -->
<!DOCTYPE svg PUBLIC "-//W3C//DTD SVG 1.1//EN" "http://www.w3.org/Graphics/SVG/1.1/DTD/svg11.dtd">
<svg version="1.1" id="Capa_1" xmlns="http://www.w3.org/2000/svg" xmlns:xlink="http://www.w3.org/1999/xlink" x="0px" y="0px"
	 viewBox="0 0 237.424 237.424" style="enable-background:new 0 0 237.424 237.424;" xml:space="preserve">
<path style="fill:#222220;" d="M225.578,12.316l-0.47-0.47C217.47,4.207,207.313,0,196.51,0s-20.96,4.207-28.599,11.846
	L135.748,44.01c-7.64,7.639-11.847,17.795-11.847,28.599c0,8.373,2.537,16.352,7.231,23.077l-35.448,35.448
	c-6.725-4.694-14.703-7.231-23.076-7.231c-10.804,0-20.959,4.207-28.598,11.846l-32.166,32.164
	c-15.769,15.77-15.769,41.428,0,57.196l0.471,0.471c7.64,7.639,17.796,11.846,28.599,11.846s20.959-4.207,28.599-11.846
	l32.163-32.164c7.64-7.639,11.847-17.795,11.847-28.598c0-8.373-2.538-16.352-7.231-23.077l35.448-35.448
	c6.726,4.694,14.704,7.231,23.077,7.231c10.803,0,20.958-4.207,28.598-11.846l32.165-32.165
	C241.348,53.744,241.348,28.086,225.578,12.316z M98.523,164.816c0,6.796-2.646,13.186-7.453,17.992l-32.164,32.164
	c-4.806,4.806-11.194,7.452-17.991,7.452s-13.186-2.646-17.991-7.452l-0.471-0.471c-9.921-9.92-9.921-26.063-0.001-35.983
	l32.166-32.164c4.806-4.806,11.194-7.452,17.991-7.452c4.334,0,8.501,1.081,12.199,3.108l-7.419,7.419
	c-2.929,2.929-2.929,7.678,0,10.606c1.465,1.464,3.385,2.197,5.304,2.197s3.839-0.732,5.304-2.197l7.418-7.419
	C97.442,156.315,98.523,160.482,98.523,164.816z M214.972,58.906l-32.165,32.165c-4.806,4.806-11.194,7.452-17.99,7.452
	c-4.335,0-8.502-1.081-12.2-3.108l7.411-7.411c2.929-2.929,2.929-7.678,0-10.606c-2.93-2.929-7.678-2.929-10.607,0l-7.411,7.411
	c-2.026-3.698-3.107-7.865-3.107-12.2c0-6.796,2.646-13.186,7.453-17.992l32.164-32.164C183.325,17.647,189.714,15,196.51,15
	s13.186,2.647,17.992,7.453l0.47,0.47C224.893,32.844,224.893,48.986,214.972,58.906z"/>
<g>
</g>
<g>
</g>
<g>
</g>
<g>
</g>
<g>
</g>
<g>
</g>
<g>
</g>
<g>
</g>
<g>
</g>
<g>
</g>
<g>
</g>
<g>
</g>
<g>
</g>
<g>
</g>
<g>
</g>
</svg>
